<mxfile host="Electron" agent="Mozilla/5.0 (Windows NT 10.0; Win64; x64) AppleWebKit/537.36 (KHTML, like Gecko) draw.io/27.0.9 Chrome/134.0.6998.205 Electron/35.4.0 Safari/537.36" version="27.0.9">
  <diagram name="Page-1" id="WYIslOoJxiP63eaS0CVQ">
    <mxGraphModel dx="1426" dy="875" grid="1" gridSize="10" guides="1" tooltips="1" connect="1" arrows="1" fold="1" page="1" pageScale="1" pageWidth="850" pageHeight="1100" math="0" shadow="0">
      <root>
        <mxCell id="0" />
        <mxCell id="1" parent="0" />
        <mxCell id="WwvSt05g5WnCtFylLtoz-1" value="&lt;b&gt;&lt;i&gt;Start&lt;/i&gt;&lt;/b&gt;" style="ellipse;whiteSpace=wrap;html=1;shadow=1;" vertex="1" parent="1">
          <mxGeometry x="560" y="195" width="100" height="40" as="geometry" />
        </mxCell>
        <mxCell id="WwvSt05g5WnCtFylLtoz-2" style="edgeStyle=orthogonalEdgeStyle;rounded=0;orthogonalLoop=1;jettySize=auto;html=1;exitX=0;exitY=0.5;exitDx=0;exitDy=0;entryX=1;entryY=0.5;entryDx=0;entryDy=0;shadow=1;" edge="1" parent="1" source="WwvSt05g5WnCtFylLtoz-4" target="WwvSt05g5WnCtFylLtoz-11">
          <mxGeometry relative="1" as="geometry" />
        </mxCell>
        <mxCell id="WwvSt05g5WnCtFylLtoz-3" style="edgeStyle=orthogonalEdgeStyle;rounded=0;orthogonalLoop=1;jettySize=auto;html=1;exitX=1;exitY=0.5;exitDx=0;exitDy=0;entryX=0;entryY=0.5;entryDx=0;entryDy=0;shadow=1;" edge="1" parent="1" source="WwvSt05g5WnCtFylLtoz-4" target="WwvSt05g5WnCtFylLtoz-9">
          <mxGeometry relative="1" as="geometry" />
        </mxCell>
        <mxCell id="WwvSt05g5WnCtFylLtoz-4" value="&lt;b&gt;&lt;i&gt;Template selection&lt;/i&gt;&lt;/b&gt;" style="rhombus;whiteSpace=wrap;html=1;shadow=1;" vertex="1" parent="1">
          <mxGeometry x="540" y="295" width="140" height="140" as="geometry" />
        </mxCell>
        <mxCell id="WwvSt05g5WnCtFylLtoz-5" value="&lt;b&gt;&lt;font style=&quot;font-size: 14px;&quot;&gt;UML Diagram for publishing message with text,media and button&lt;/font&gt;&amp;nbsp;&lt;/b&gt;" style="text;html=1;align=center;verticalAlign=middle;resizable=0;points=[];autosize=1;strokeColor=none;fillColor=none;shadow=1;" vertex="1" parent="1">
          <mxGeometry x="400" y="125" width="460" height="30" as="geometry" />
        </mxCell>
        <mxCell id="WwvSt05g5WnCtFylLtoz-6" value="" style="endArrow=classic;html=1;rounded=0;exitX=0.5;exitY=1;exitDx=0;exitDy=0;shadow=1;" edge="1" parent="1" source="WwvSt05g5WnCtFylLtoz-1" target="WwvSt05g5WnCtFylLtoz-4">
          <mxGeometry width="50" height="50" relative="1" as="geometry">
            <mxPoint x="720" y="335" as="sourcePoint" />
            <mxPoint x="770" y="285" as="targetPoint" />
          </mxGeometry>
        </mxCell>
        <mxCell id="WwvSt05g5WnCtFylLtoz-7" style="edgeStyle=orthogonalEdgeStyle;rounded=0;orthogonalLoop=1;jettySize=auto;html=1;exitX=0.5;exitY=1;exitDx=0;exitDy=0;shadow=1;" edge="1" parent="1" source="WwvSt05g5WnCtFylLtoz-4" target="WwvSt05g5WnCtFylLtoz-4">
          <mxGeometry relative="1" as="geometry" />
        </mxCell>
        <mxCell id="WwvSt05g5WnCtFylLtoz-8" style="edgeStyle=orthogonalEdgeStyle;rounded=0;orthogonalLoop=1;jettySize=auto;html=1;exitX=0.5;exitY=1;exitDx=0;exitDy=0;shadow=1;" edge="1" parent="1" source="WwvSt05g5WnCtFylLtoz-9">
          <mxGeometry relative="1" as="geometry">
            <mxPoint x="875" y="465" as="targetPoint" />
          </mxGeometry>
        </mxCell>
        <mxCell id="WwvSt05g5WnCtFylLtoz-9" value="&lt;b&gt;&lt;i&gt;Select template from existing template list&lt;/i&gt;&lt;/b&gt;" style="rounded=1;whiteSpace=wrap;html=1;shadow=1;glass=0;" vertex="1" parent="1">
          <mxGeometry x="810" y="330" width="130" height="70" as="geometry" />
        </mxCell>
        <mxCell id="WwvSt05g5WnCtFylLtoz-10" style="edgeStyle=orthogonalEdgeStyle;rounded=0;orthogonalLoop=1;jettySize=auto;html=1;exitX=0.5;exitY=1;exitDx=0;exitDy=0;entryX=0;entryY=0.5;entryDx=0;entryDy=0;shadow=1;" edge="1" parent="1" source="WwvSt05g5WnCtFylLtoz-11" target="WwvSt05g5WnCtFylLtoz-32">
          <mxGeometry relative="1" as="geometry" />
        </mxCell>
        <mxCell id="WwvSt05g5WnCtFylLtoz-11" value="&lt;b&gt;&lt;i&gt;Create New Template&lt;/i&gt;&lt;/b&gt;" style="rounded=1;whiteSpace=wrap;html=1;shadow=1;" vertex="1" parent="1">
          <mxGeometry x="270" y="335" width="135" height="60" as="geometry" />
        </mxCell>
        <mxCell id="WwvSt05g5WnCtFylLtoz-12" style="edgeStyle=orthogonalEdgeStyle;rounded=0;orthogonalLoop=1;jettySize=auto;html=1;exitX=0.5;exitY=1;exitDx=0;exitDy=0;entryX=0.5;entryY=0;entryDx=0;entryDy=0;shadow=1;" edge="1" parent="1" source="WwvSt05g5WnCtFylLtoz-13" target="WwvSt05g5WnCtFylLtoz-30">
          <mxGeometry relative="1" as="geometry" />
        </mxCell>
        <mxCell id="WwvSt05g5WnCtFylLtoz-13" value="&lt;b&gt;&lt;i&gt;Message&lt;/i&gt;&lt;/b&gt;" style="rounded=1;whiteSpace=wrap;html=1;shadow=1;" vertex="1" parent="1">
          <mxGeometry x="815" y="465" width="120" height="60" as="geometry" />
        </mxCell>
        <mxCell id="WwvSt05g5WnCtFylLtoz-14" style="edgeStyle=orthogonalEdgeStyle;rounded=0;orthogonalLoop=1;jettySize=auto;html=1;exitX=0;exitY=0.5;exitDx=0;exitDy=0;entryX=1;entryY=0.5;entryDx=0;entryDy=0;shadow=1;" edge="1" parent="1" source="WwvSt05g5WnCtFylLtoz-15" target="WwvSt05g5WnCtFylLtoz-13">
          <mxGeometry relative="1" as="geometry" />
        </mxCell>
        <mxCell id="WwvSt05g5WnCtFylLtoz-15" value="&lt;b&gt;&lt;i&gt;Header&lt;/i&gt;&lt;/b&gt;" style="rounded=1;whiteSpace=wrap;html=1;shadow=1;" vertex="1" parent="1">
          <mxGeometry x="1150" y="325" width="120" height="60" as="geometry" />
        </mxCell>
        <mxCell id="WwvSt05g5WnCtFylLtoz-16" style="edgeStyle=orthogonalEdgeStyle;rounded=0;orthogonalLoop=1;jettySize=auto;html=1;exitX=0;exitY=0.5;exitDx=0;exitDy=0;entryX=1;entryY=0.5;entryDx=0;entryDy=0;shadow=1;" edge="1" parent="1" source="WwvSt05g5WnCtFylLtoz-17" target="WwvSt05g5WnCtFylLtoz-15">
          <mxGeometry relative="1" as="geometry" />
        </mxCell>
        <mxCell id="WwvSt05g5WnCtFylLtoz-17" value="&lt;p style=&quot;margin:0px;margin-top:4px;text-align:center;&quot;&gt;&lt;b&gt;Header Type&lt;/b&gt;&lt;/p&gt;&lt;hr size=&quot;1&quot; style=&quot;border-style:solid;&quot;&gt;&lt;p style=&quot;margin:0px;margin-left:4px;&quot;&gt;+ Format: string = &quot;TEXT&quot;&lt;br&gt;+ Size: Int&lt;/p&gt;&lt;p style=&quot;margin:0px;margin-left:4px;&quot;&gt;&lt;br&gt;&lt;/p&gt;" style="verticalAlign=top;align=left;overflow=fill;html=1;whiteSpace=wrap;shadow=1;" vertex="1" parent="1">
          <mxGeometry x="1371" y="320" width="190" height="70" as="geometry" />
        </mxCell>
        <mxCell id="WwvSt05g5WnCtFylLtoz-18" style="edgeStyle=orthogonalEdgeStyle;rounded=0;orthogonalLoop=1;jettySize=auto;html=1;exitX=0;exitY=0.5;exitDx=0;exitDy=0;entryX=1;entryY=0.5;entryDx=0;entryDy=0;shadow=1;" edge="1" parent="1" source="WwvSt05g5WnCtFylLtoz-19" target="WwvSt05g5WnCtFylLtoz-17">
          <mxGeometry relative="1" as="geometry" />
        </mxCell>
        <mxCell id="WwvSt05g5WnCtFylLtoz-19" value="&lt;p style=&quot;margin:0px;margin-top:4px;text-align:center;&quot;&gt;&lt;b&gt;Text&lt;/b&gt;&lt;/p&gt;&lt;hr size=&quot;1&quot; style=&quot;border-style:solid;&quot;&gt;&lt;p style=&quot;margin:0px;margin-left:4px;&quot;&gt;+ Format: string&lt;br&gt;+ Size: Int&lt;/p&gt;&lt;p style=&quot;margin:0px;margin-left:4px;&quot;&gt;&lt;br&gt;&lt;/p&gt;" style="verticalAlign=top;align=left;overflow=fill;html=1;whiteSpace=wrap;shadow=1;" vertex="1" parent="1">
          <mxGeometry x="1681" y="254" width="190" height="70" as="geometry" />
        </mxCell>
        <mxCell id="WwvSt05g5WnCtFylLtoz-20" style="edgeStyle=orthogonalEdgeStyle;rounded=0;orthogonalLoop=1;jettySize=auto;html=1;exitX=0;exitY=0.5;exitDx=0;exitDy=0;entryX=1;entryY=0.5;entryDx=0;entryDy=0;shadow=1;" edge="1" parent="1" source="WwvSt05g5WnCtFylLtoz-21" target="WwvSt05g5WnCtFylLtoz-17">
          <mxGeometry relative="1" as="geometry" />
        </mxCell>
        <mxCell id="WwvSt05g5WnCtFylLtoz-21" value="&lt;p style=&quot;margin:0px;margin-top:4px;text-align:center;&quot;&gt;&lt;b&gt;Media&lt;/b&gt;&lt;/p&gt;&lt;hr size=&quot;1&quot; style=&quot;border-style:solid;&quot;&gt;&lt;p style=&quot;margin:0px;margin-left:4px;&quot;&gt;+&amp;nbsp; Format: binary_code&lt;br&gt;+&amp;nbsp; Size_in_bytes: float&lt;/p&gt;&lt;p style=&quot;margin:0px;margin-left:4px;&quot;&gt;&lt;br&gt;&lt;/p&gt;" style="verticalAlign=top;align=left;overflow=fill;html=1;whiteSpace=wrap;shadow=1;" vertex="1" parent="1">
          <mxGeometry x="1681" y="382" width="190" height="70" as="geometry" />
        </mxCell>
        <mxCell id="WwvSt05g5WnCtFylLtoz-22" value="&lt;b&gt;&lt;i&gt;Option 2&lt;/i&gt;&lt;/b&gt;" style="text;html=1;align=center;verticalAlign=middle;resizable=0;points=[];autosize=1;strokeColor=none;fillColor=none;shadow=1;" vertex="1" parent="1">
          <mxGeometry x="695" y="333" width="70" height="30" as="geometry" />
        </mxCell>
        <mxCell id="WwvSt05g5WnCtFylLtoz-23" value="&lt;b&gt;&lt;i&gt;Option 1&lt;/i&gt;&lt;/b&gt;" style="text;html=1;align=center;verticalAlign=middle;resizable=0;points=[];autosize=1;strokeColor=none;fillColor=none;shadow=1;" vertex="1" parent="1">
          <mxGeometry x="465" y="333" width="70" height="30" as="geometry" />
        </mxCell>
        <mxCell id="WwvSt05g5WnCtFylLtoz-24" style="edgeStyle=orthogonalEdgeStyle;rounded=0;orthogonalLoop=1;jettySize=auto;html=1;exitX=0;exitY=0.5;exitDx=0;exitDy=0;entryX=1;entryY=0.5;entryDx=0;entryDy=0;shadow=1;" edge="1" parent="1" source="WwvSt05g5WnCtFylLtoz-25" target="WwvSt05g5WnCtFylLtoz-27">
          <mxGeometry relative="1" as="geometry" />
        </mxCell>
        <mxCell id="WwvSt05g5WnCtFylLtoz-25" value="&lt;p style=&quot;margin:0px;margin-top:4px;text-align:center;&quot;&gt;&lt;b&gt;Body Type&lt;/b&gt;&lt;/p&gt;&lt;hr size=&quot;1&quot; style=&quot;border-style:solid;&quot;&gt;&lt;p style=&quot;margin:0px;margin-left:4px;&quot;&gt;+ Format: string = &quot;TEXT&quot;&lt;br&gt;+ Size: Int&lt;/p&gt;&lt;p style=&quot;margin:0px;margin-left:4px;&quot;&gt;&lt;br&gt;&lt;/p&gt;" style="verticalAlign=top;align=left;overflow=fill;html=1;whiteSpace=wrap;shadow=1;" vertex="1" parent="1">
          <mxGeometry x="1371" y="460" width="190" height="70" as="geometry" />
        </mxCell>
        <mxCell id="WwvSt05g5WnCtFylLtoz-26" style="edgeStyle=orthogonalEdgeStyle;rounded=0;orthogonalLoop=1;jettySize=auto;html=1;exitX=0;exitY=0.5;exitDx=0;exitDy=0;entryX=1;entryY=0.5;entryDx=0;entryDy=0;shadow=1;" edge="1" parent="1" source="WwvSt05g5WnCtFylLtoz-27" target="WwvSt05g5WnCtFylLtoz-13">
          <mxGeometry relative="1" as="geometry" />
        </mxCell>
        <mxCell id="WwvSt05g5WnCtFylLtoz-27" value="&lt;b&gt;&lt;i&gt;Body&lt;/i&gt;&lt;/b&gt;" style="rounded=1;whiteSpace=wrap;html=1;shadow=1;" vertex="1" parent="1">
          <mxGeometry x="1150" y="465" width="120" height="60" as="geometry" />
        </mxCell>
        <mxCell id="WwvSt05g5WnCtFylLtoz-28" value="&lt;b&gt;&lt;i&gt;Stop&lt;/i&gt;&lt;/b&gt;" style="ellipse;whiteSpace=wrap;html=1;aspect=fixed;shadow=1;" vertex="1" parent="1">
          <mxGeometry x="580" y="969" width="60" height="60" as="geometry" />
        </mxCell>
        <mxCell id="WwvSt05g5WnCtFylLtoz-29" style="edgeStyle=orthogonalEdgeStyle;rounded=0;orthogonalLoop=1;jettySize=auto;html=1;exitX=0.5;exitY=1;exitDx=0;exitDy=0;entryX=0.5;entryY=0;entryDx=0;entryDy=0;shadow=1;" edge="1" parent="1" source="WwvSt05g5WnCtFylLtoz-30" target="WwvSt05g5WnCtFylLtoz-39">
          <mxGeometry relative="1" as="geometry" />
        </mxCell>
        <mxCell id="WwvSt05g5WnCtFylLtoz-30" value="&lt;b&gt;&lt;i&gt;Preview Message&lt;/i&gt;&lt;/b&gt;" style="rounded=1;whiteSpace=wrap;html=1;shadow=1;" vertex="1" parent="1">
          <mxGeometry x="815" y="595" width="120" height="60" as="geometry" />
        </mxCell>
        <mxCell id="WwvSt05g5WnCtFylLtoz-31" style="edgeStyle=orthogonalEdgeStyle;rounded=0;orthogonalLoop=1;jettySize=auto;html=1;exitX=0.5;exitY=1;exitDx=0;exitDy=0;entryX=0.5;entryY=0;entryDx=0;entryDy=0;shadow=1;" edge="1" parent="1" source="WwvSt05g5WnCtFylLtoz-32" target="WwvSt05g5WnCtFylLtoz-28">
          <mxGeometry relative="1" as="geometry" />
        </mxCell>
        <mxCell id="WwvSt05g5WnCtFylLtoz-32" value="&lt;b&gt;&lt;i&gt;send message to user&lt;/i&gt;&lt;/b&gt;" style="rounded=1;whiteSpace=wrap;html=1;shadow=1;" vertex="1" parent="1">
          <mxGeometry x="550" y="849" width="120" height="60" as="geometry" />
        </mxCell>
        <mxCell id="WwvSt05g5WnCtFylLtoz-33" style="edgeStyle=orthogonalEdgeStyle;rounded=0;orthogonalLoop=1;jettySize=auto;html=1;exitX=0;exitY=0.5;exitDx=0;exitDy=0;entryX=1;entryY=0.5;entryDx=0;entryDy=0;shadow=1;" edge="1" parent="1" source="WwvSt05g5WnCtFylLtoz-34" target="WwvSt05g5WnCtFylLtoz-13">
          <mxGeometry relative="1" as="geometry" />
        </mxCell>
        <mxCell id="WwvSt05g5WnCtFylLtoz-34" value="&lt;b&gt;&lt;i&gt;Footer&lt;br&gt;(optional)&lt;/i&gt;&lt;/b&gt;" style="rounded=1;whiteSpace=wrap;html=1;shadow=1;" vertex="1" parent="1">
          <mxGeometry x="1150" y="605" width="120" height="60" as="geometry" />
        </mxCell>
        <mxCell id="WwvSt05g5WnCtFylLtoz-35" style="edgeStyle=orthogonalEdgeStyle;rounded=0;orthogonalLoop=1;jettySize=auto;html=1;exitX=0;exitY=0.5;exitDx=0;exitDy=0;entryX=1;entryY=0.5;entryDx=0;entryDy=0;shadow=1;" edge="1" parent="1" source="WwvSt05g5WnCtFylLtoz-36" target="WwvSt05g5WnCtFylLtoz-34">
          <mxGeometry relative="1" as="geometry" />
        </mxCell>
        <mxCell id="WwvSt05g5WnCtFylLtoz-36" value="&lt;p style=&quot;margin:0px;margin-top:4px;text-align:center;&quot;&gt;&lt;b&gt;Footer Type&lt;/b&gt;&lt;/p&gt;&lt;hr size=&quot;1&quot; style=&quot;border-style:solid;&quot;&gt;&lt;p style=&quot;margin:0px;margin-left:4px;&quot;&gt;+ Format: string = &quot;TEXT&quot;&lt;br&gt;+ Size: Int&lt;/p&gt;&lt;p style=&quot;margin:0px;margin-left:4px;&quot;&gt;&lt;br&gt;&lt;/p&gt;" style="verticalAlign=top;align=left;overflow=fill;html=1;whiteSpace=wrap;shadow=1;" vertex="1" parent="1">
          <mxGeometry x="1371" y="600" width="190" height="70" as="geometry" />
        </mxCell>
        <mxCell id="WwvSt05g5WnCtFylLtoz-37" style="edgeStyle=orthogonalEdgeStyle;rounded=0;orthogonalLoop=1;jettySize=auto;html=1;exitX=0;exitY=0.5;exitDx=0;exitDy=0;entryX=0;entryY=0.5;entryDx=0;entryDy=0;shadow=1;" edge="1" parent="1" source="WwvSt05g5WnCtFylLtoz-39" target="WwvSt05g5WnCtFylLtoz-13">
          <mxGeometry relative="1" as="geometry">
            <Array as="points">
              <mxPoint x="730" y="769" />
              <mxPoint x="730" y="495" />
            </Array>
          </mxGeometry>
        </mxCell>
        <mxCell id="WwvSt05g5WnCtFylLtoz-38" style="edgeStyle=orthogonalEdgeStyle;rounded=0;orthogonalLoop=1;jettySize=auto;html=1;exitX=0.5;exitY=1;exitDx=0;exitDy=0;entryX=1;entryY=0.5;entryDx=0;entryDy=0;shadow=1;" edge="1" parent="1" source="WwvSt05g5WnCtFylLtoz-39" target="WwvSt05g5WnCtFylLtoz-32">
          <mxGeometry relative="1" as="geometry" />
        </mxCell>
        <mxCell id="WwvSt05g5WnCtFylLtoz-39" value="&lt;b&gt;&lt;i&gt;Confirmation&lt;/i&gt;&lt;/b&gt;" style="rhombus;whiteSpace=wrap;html=1;shadow=1;" vertex="1" parent="1">
          <mxGeometry x="825" y="719" width="100" height="100" as="geometry" />
        </mxCell>
        <mxCell id="WwvSt05g5WnCtFylLtoz-40" value="&lt;b&gt;&lt;i&gt;NO&lt;/i&gt;&lt;/b&gt;" style="text;html=1;align=center;verticalAlign=middle;resizable=0;points=[];autosize=1;strokeColor=none;fillColor=none;shadow=1;" vertex="1" parent="1">
          <mxGeometry x="770" y="717" width="40" height="30" as="geometry" />
        </mxCell>
        <mxCell id="WwvSt05g5WnCtFylLtoz-41" value="&lt;b&gt;&lt;i&gt;YES&lt;/i&gt;&lt;/b&gt;" style="text;html=1;align=center;verticalAlign=middle;resizable=0;points=[];autosize=1;strokeColor=none;fillColor=none;shadow=1;" vertex="1" parent="1">
          <mxGeometry x="825" y="817" width="50" height="30" as="geometry" />
        </mxCell>
        <mxCell id="WwvSt05g5WnCtFylLtoz-51" style="edgeStyle=orthogonalEdgeStyle;rounded=0;orthogonalLoop=1;jettySize=auto;html=1;exitX=0;exitY=0.5;exitDx=0;exitDy=0;entryX=1;entryY=0.5;entryDx=0;entryDy=0;" edge="1" parent="1" source="WwvSt05g5WnCtFylLtoz-42" target="WwvSt05g5WnCtFylLtoz-13">
          <mxGeometry relative="1" as="geometry" />
        </mxCell>
        <mxCell id="WwvSt05g5WnCtFylLtoz-42" value="&lt;b&gt;&lt;i&gt;Buttons&lt;/i&gt;&lt;/b&gt;" style="rounded=1;whiteSpace=wrap;html=1;shadow=1;" vertex="1" parent="1">
          <mxGeometry x="1150" y="755" width="120" height="60" as="geometry" />
        </mxCell>
        <mxCell id="WwvSt05g5WnCtFylLtoz-43" style="edgeStyle=orthogonalEdgeStyle;rounded=0;orthogonalLoop=1;jettySize=auto;html=1;exitX=0;exitY=0.5;exitDx=0;exitDy=0;" edge="1" parent="1" source="WwvSt05g5WnCtFylLtoz-44" target="WwvSt05g5WnCtFylLtoz-42">
          <mxGeometry relative="1" as="geometry" />
        </mxCell>
        <mxCell id="WwvSt05g5WnCtFylLtoz-44" value="&lt;p style=&quot;margin:0px;margin-top:4px;text-align:center;&quot;&gt;&lt;b&gt;Button Type&lt;/b&gt;&lt;/p&gt;&lt;hr size=&quot;1&quot; style=&quot;border-style:solid;&quot;&gt;&lt;p style=&quot;margin:0px;margin-left:4px;&quot;&gt;+ Format: string = &quot;TEXT&quot;&lt;br&gt;+ Size: Int&lt;/p&gt;&lt;p style=&quot;margin:0px;margin-left:4px;&quot;&gt;&lt;br&gt;&lt;/p&gt;" style="verticalAlign=top;align=left;overflow=fill;html=1;whiteSpace=wrap;shadow=1;" vertex="1" parent="1">
          <mxGeometry x="1373" y="750" width="190" height="70" as="geometry" />
        </mxCell>
        <mxCell id="WwvSt05g5WnCtFylLtoz-45" style="edgeStyle=orthogonalEdgeStyle;rounded=0;orthogonalLoop=1;jettySize=auto;html=1;exitX=0.5;exitY=0;exitDx=0;exitDy=0;entryX=0.5;entryY=1;entryDx=0;entryDy=0;" edge="1" parent="1" source="WwvSt05g5WnCtFylLtoz-46" target="WwvSt05g5WnCtFylLtoz-44">
          <mxGeometry relative="1" as="geometry" />
        </mxCell>
        <mxCell id="WwvSt05g5WnCtFylLtoz-46" value="&lt;p style=&quot;margin:0px;margin-top:4px;text-align:center;&quot;&gt;&lt;b&gt;url&lt;/b&gt;&lt;/p&gt;&lt;hr size=&quot;1&quot; style=&quot;border-style:solid;&quot;&gt;&lt;p style=&quot;margin:0px;margin-left:4px;&quot;&gt;+ Format: string = &quot;url link&quot;&lt;br&gt;+ Size: Int&lt;/p&gt;&lt;p style=&quot;margin:0px;margin-left:4px;&quot;&gt;&lt;br&gt;&lt;/p&gt;" style="verticalAlign=top;align=left;overflow=fill;html=1;whiteSpace=wrap;shadow=1;" vertex="1" parent="1">
          <mxGeometry x="1096" y="925" width="190" height="70" as="geometry" />
        </mxCell>
        <mxCell id="WwvSt05g5WnCtFylLtoz-47" style="edgeStyle=orthogonalEdgeStyle;rounded=0;orthogonalLoop=1;jettySize=auto;html=1;exitX=0.5;exitY=0;exitDx=0;exitDy=0;entryX=0.5;entryY=1;entryDx=0;entryDy=0;" edge="1" parent="1" source="WwvSt05g5WnCtFylLtoz-48" target="WwvSt05g5WnCtFylLtoz-44">
          <mxGeometry relative="1" as="geometry" />
        </mxCell>
        <mxCell id="WwvSt05g5WnCtFylLtoz-48" value="&lt;p style=&quot;margin:0px;margin-top:4px;text-align:center;&quot;&gt;&lt;b&gt;phone_number&lt;/b&gt;&lt;/p&gt;&lt;hr size=&quot;1&quot; style=&quot;border-style:solid;&quot;&gt;&lt;p style=&quot;margin:0px;margin-left:4px;&quot;&gt;+ Format: string = &quot;phone number&quot;&lt;br&gt;+ Size: Int&lt;/p&gt;&lt;p style=&quot;margin:0px;margin-left:4px;&quot;&gt;&lt;br&gt;&lt;/p&gt;" style="verticalAlign=top;align=left;overflow=fill;html=1;whiteSpace=wrap;shadow=1;" vertex="1" parent="1">
          <mxGeometry x="1373" y="925" width="190" height="70" as="geometry" />
        </mxCell>
        <mxCell id="WwvSt05g5WnCtFylLtoz-49" style="edgeStyle=orthogonalEdgeStyle;rounded=0;orthogonalLoop=1;jettySize=auto;html=1;exitX=0.5;exitY=0;exitDx=0;exitDy=0;entryX=0.5;entryY=1;entryDx=0;entryDy=0;" edge="1" parent="1" source="WwvSt05g5WnCtFylLtoz-50" target="WwvSt05g5WnCtFylLtoz-44">
          <mxGeometry relative="1" as="geometry" />
        </mxCell>
        <mxCell id="WwvSt05g5WnCtFylLtoz-50" value="&lt;p style=&quot;margin:0px;margin-top:4px;text-align:center;&quot;&gt;&lt;b&gt;quick_reply&lt;/b&gt;&lt;/p&gt;&lt;hr size=&quot;1&quot; style=&quot;border-style:solid;&quot;&gt;&lt;p style=&quot;margin:0px;margin-left:4px;&quot;&gt;+ Format: string = &quot;options&quot;&lt;br&gt;+ Size: Int&lt;/p&gt;&lt;p style=&quot;margin:0px;margin-left:4px;&quot;&gt;&lt;br&gt;&lt;/p&gt;" style="verticalAlign=top;align=left;overflow=fill;html=1;whiteSpace=wrap;shadow=1;" vertex="1" parent="1">
          <mxGeometry x="1646" y="925" width="190" height="70" as="geometry" />
        </mxCell>
      </root>
    </mxGraphModel>
  </diagram>
</mxfile>
